<svg id="moon_5_" data-name="moon (5)" xmlns="http://www.w3.org/2000/svg" width="16.813" height="16.813" viewBox="0 0 16.813 16.813">
  <g id="Group_9" data-name="Group 9">
    <path id="Path_165" data-name="Path 165" d="M16.671,6.863a.493.493,0,0,0-.964-.02A4.784,4.784,0,1,1,9.97,1.106.493.493,0,0,0,9.95.142,8.475,8.475,0,0,0,8.406,0,8.406,8.406,0,0,0,2.462,14.351,8.406,8.406,0,0,0,16.813,8.406,8.486,8.486,0,0,0,16.671,6.863ZM8.406,15.828A7.421,7.421,0,0,1,7.784,1.011,5.768,5.768,0,1,0,15.8,9.029,7.432,7.432,0,0,1,8.406,15.828Z"/>
  </g>
</svg>
