<?xml version="1.0" encoding="utf-8"?>
<!-- Generator: Adobe Illustrator 24.0.1, SVG Export Plug-In . SVG Version: 6.00 Build 0)  -->
<svg version="1.1" id="Layer_1" xmlns="http://www.w3.org/2000/svg" xmlns:xlink="http://www.w3.org/1999/xlink" x="0px" y="0px"
	 viewBox="0 0 18.4 18.4" style="enable-background:new 0 0 18.4 18.4;" xml:space="preserve">
<style type="text/css">
	.st0{fill:#212744;}
</style>
<path class="st0" d="M17.7,16.3l-3.4-3.4C15.4,11.5,16,9.8,16,8c0-4.4-3.6-8-8-8S0,3.6,0,8s3.6,8,8,8c1.8,0,3.5-0.6,4.9-1.7l3.4,3.4
	c0.2,0.2,0.5,0.3,0.7,0.3s0.5-0.1,0.7-0.3C18.1,17.3,18.1,16.7,17.7,16.3z M2,8c0-3.3,2.7-6,6-6s6,2.7,6,6s-2.7,6-6,6S2,11.3,2,8z"
	/>
</svg>
