<svg id="logo_2_" data-name="logo (2)" xmlns="http://www.w3.org/2000/svg" width="189.849" height="37.313" viewBox="0 0 189.849 37.313">
  <path id="Path_1" data-name="Path 1" d="M21.422,46.073a12.474,12.474,0,0,1,1.516,6.68V62.964a2.4,2.4,0,0,1-.672,1.727,2.3,2.3,0,0,1-1.708.691,2.271,2.271,0,0,1-1.708-.691,2.328,2.328,0,0,1-.672-1.727V52.752a6.054,6.054,0,0,0-.864-3.455A3.367,3.367,0,0,0,14.3,48.05a4.528,4.528,0,0,0-3.493,1.344A4.685,4.685,0,0,0,9.56,52.772V62.983a2.4,2.4,0,0,1-.672,1.727A2.3,2.3,0,0,1,7.18,65.4a2.271,2.271,0,0,1-1.708-.691A2.328,2.328,0,0,1,4.8,62.983V38.318a2.406,2.406,0,0,1,.672-1.727A2.3,2.3,0,0,1,7.18,35.9a2.271,2.271,0,0,1,1.708.691,2.328,2.328,0,0,1,.672,1.727v8.81a9.911,9.911,0,0,1,2.726-2.457,6.957,6.957,0,0,1,3.685-1.017C18.581,43.654,20.4,44.461,21.422,46.073Z" transform="translate(-4.8 -35.9)" fill="#343740"/>
  <path id="Path_2" data-name="Path 2" d="M139.759,88.35a2.51,2.51,0,0,1-1.67.6H124.922a6.045,6.045,0,0,0,2.188,3.685,6.219,6.219,0,0,0,3.877,1.344,8.164,8.164,0,0,0,2.553-.307A6.225,6.225,0,0,0,135,93.033c.365-.23.595-.384.729-.461a3.152,3.152,0,0,1,1.363-.365,1.957,1.957,0,0,1,1.44.6,1.9,1.9,0,0,1,.6,1.4,2.5,2.5,0,0,1-1.113,1.958,9.5,9.5,0,0,1-2.994,1.555,11.754,11.754,0,0,1-3.781.633,11.62,11.62,0,0,1-5.835-1.4,9.6,9.6,0,0,1-3.839-3.839,11.236,11.236,0,0,1-1.363-5.528,12.225,12.225,0,0,1,1.44-6.027,10.341,10.341,0,0,1,3.781-3.973A9.777,9.777,0,0,1,130.45,76.2a9.337,9.337,0,0,1,4.971,1.44,10.619,10.619,0,0,1,3.724,3.877,10.471,10.471,0,0,1,1.4,5.259A2.2,2.2,0,0,1,139.759,88.35Zm-14.8-3.4H135.4v-.288a4.208,4.208,0,0,0-1.631-2.879,5.106,5.106,0,0,0-3.359-1.19C127.34,80.615,125.517,82.054,124.96,84.953Z" transform="translate(-98.05 -68.465)" fill="#343740"/>
  <path id="Path_3" data-name="Path 3" d="M253.069,64.691a2.344,2.344,0,0,1-1.727.691,2.215,2.215,0,0,1-1.67-.691A2.328,2.328,0,0,1,249,62.964V38.318a2.362,2.362,0,0,1,2.418-2.418,2.215,2.215,0,0,1,1.67.691,2.328,2.328,0,0,1,.672,1.727V62.964A2.344,2.344,0,0,1,253.069,64.691Z" transform="translate(-202.128 -35.9)" fill="#343740"/>
  <path id="Path_4" data-name="Path 4" d="M309.069,64.691a2.343,2.343,0,0,1-1.727.691,2.215,2.215,0,0,1-1.67-.691A2.329,2.329,0,0,1,305,62.964V38.318a2.362,2.362,0,0,1,2.419-2.418,2.215,2.215,0,0,1,1.67.691,2.329,2.329,0,0,1,.672,1.727V62.964A2.205,2.205,0,0,1,309.069,64.691Z" transform="translate(-247.379 -35.9)" fill="#343740"/>
  <path id="Path_5" data-name="Path 5" d="M370.788,93.114a10.2,10.2,0,0,1-3.935,3.935,11.173,11.173,0,0,1-5.49,1.4,10.941,10.941,0,0,1-5.509-1.4,10.153,10.153,0,0,1-3.915-3.935,12.083,12.083,0,0,1,0-11.44,10.468,10.468,0,0,1,3.915-3.954,11.356,11.356,0,0,1,11,0,10.25,10.25,0,0,1,3.935,3.954,12.084,12.084,0,0,1,0,11.44ZM366.623,83.9a5.97,5.97,0,0,0-2.188-2.38,5.859,5.859,0,0,0-8.292,2.38,7.392,7.392,0,0,0-.825,3.493,7.1,7.1,0,0,0,.825,3.474,6.047,6.047,0,0,0,2.188,2.361,5.936,5.936,0,0,0,6.1,0,5.916,5.916,0,0,0,2.188-2.361,7.314,7.314,0,0,0,.825-3.474A7.626,7.626,0,0,0,366.623,83.9Z" transform="translate(-284.146 -68.546)" fill="#343740"/>
  <path id="Path_6" data-name="Path 6" d="M467.433,76.035a2.171,2.171,0,0,1-.633-1.593V74c0-1.056.672-1.785,2.034-2.188a2.292,2.292,0,0,0,1.612-1.344,7.86,7.86,0,0,0,.346-2.61V49.97a2.4,2.4,0,0,1,.672-1.727,2.3,2.3,0,0,1,1.708-.691,2.271,2.271,0,0,1,1.708.691,2.329,2.329,0,0,1,.672,1.727V69.26a8.469,8.469,0,0,1-.864,3.916,6.438,6.438,0,0,1-2.361,2.591,6.226,6.226,0,0,1-3.32.921A2.254,2.254,0,0,1,467.433,76.035ZM471.176,44.5a1.884,1.884,0,0,1-.557-1.555V42.2a1.784,1.784,0,0,1,.6-1.555,4.477,4.477,0,0,1,3.877,0,1.884,1.884,0,0,1,.557,1.555v.749a1.824,1.824,0,0,1-.576,1.574,3.393,3.393,0,0,1-1.977.422A3.246,3.246,0,0,1,471.176,44.5Z" transform="translate(-378.123 -39.375)" fill="#343740"/>
  <path id="Path_7" data-name="Path 7" d="M555.488,93.114a10.2,10.2,0,0,1-3.935,3.935,11.173,11.173,0,0,1-5.49,1.4,10.939,10.939,0,0,1-5.508-1.4,10.151,10.151,0,0,1-3.916-3.935,12.083,12.083,0,0,1,0-11.44,10.467,10.467,0,0,1,3.916-3.954,11.355,11.355,0,0,1,11,0,10.249,10.249,0,0,1,3.935,3.954,11.357,11.357,0,0,1,1.44,5.72A11.611,11.611,0,0,1,555.488,93.114ZM551.323,83.9a5.971,5.971,0,0,0-2.188-2.38,5.859,5.859,0,0,0-8.292,2.38,7.393,7.393,0,0,0-.825,3.493,7.1,7.1,0,0,0,.825,3.474,6.046,6.046,0,0,0,2.188,2.361,5.936,5.936,0,0,0,6.1,0,5.919,5.919,0,0,0,2.188-2.361,7.314,7.314,0,0,0,.825-3.474A7.625,7.625,0,0,0,551.323,83.9Z" transform="translate(-433.394 -68.546)" fill="#343740"/>
  <path id="Path_8" data-name="Path 8" d="M685.37,45.075A9.773,9.773,0,0,1,688.9,49.01a12.233,12.233,0,0,1,1.305,5.7,12.594,12.594,0,0,1-1.267,5.72,9.74,9.74,0,0,1-3.493,3.954,8.924,8.924,0,0,1-4.875,1.42,8.6,8.6,0,0,1-3.608-.787,9.225,9.225,0,0,1-2.8-1.9v.23a2.4,2.4,0,0,1-.672,1.727,2.3,2.3,0,0,1-1.708.691,2.3,2.3,0,0,1-2.38-2.418V38.318a2.4,2.4,0,0,1,.672-1.727,2.3,2.3,0,0,1,1.708-.691,2.27,2.27,0,0,1,1.708.691,2.328,2.328,0,0,1,.672,1.727v8.33a8.144,8.144,0,0,1,2.668-2.092,7.715,7.715,0,0,1,3.589-.9A9.087,9.087,0,0,1,685.37,45.075ZM683.987,59.49a7.824,7.824,0,0,0,.019-9.539,5.25,5.25,0,0,0-4.2-1.9,5.316,5.316,0,0,0-4.223,1.9,7.789,7.789,0,0,0,0,9.539,5.562,5.562,0,0,0,8.407,0Z" transform="translate(-541.836 -35.9)" fill="#343740"/>
  <path id="Path_9" data-name="Path 9" d="M797.084,173.8a1.653,1.653,0,0,1-.384-1.171v-.595a1.553,1.553,0,0,1,.384-1.132,1.482,1.482,0,0,1,1.133-.4h.307a1.5,1.5,0,0,1,1.152.4,1.616,1.616,0,0,1,.384,1.132v.595a1.374,1.374,0,0,1-1.535,1.574h-.307A1.482,1.482,0,0,1,797.084,173.8Z" transform="translate(-644.702 -144.665)" fill="#00a3e0"/>
  <path id="Path_10" data-name="Path 10" d="M844.582,104.457a1.522,1.522,0,0,1,.422,1.094v13.4a1.448,1.448,0,0,1-.422,1.056,1.4,1.4,0,0,1-1.056.441,1.36,1.36,0,0,1-1.056-.422,1.448,1.448,0,0,1-.4-1.056v-.806A6.738,6.738,0,0,1,839.88,120a6.187,6.187,0,0,1-2.994.749,7.126,7.126,0,0,1-3.82-1.075,7.592,7.592,0,0,1-2.687-3.013,10.1,10.1,0,0,1,0-8.676,7.549,7.549,0,0,1,2.668-3.013,6.754,6.754,0,0,1,3.743-1.075,6.954,6.954,0,0,1,3.033.672,6.489,6.489,0,0,1,2.246,1.727v-.749a1.493,1.493,0,0,1,.4-1.075,1.374,1.374,0,0,1,1.056-.441A1.417,1.417,0,0,1,844.582,104.457Zm-4.78,12.822a5.073,5.073,0,0,0,1.766-2.035,6.6,6.6,0,0,0,.634-2.937,6.492,6.492,0,0,0-.634-2.9,5.129,5.129,0,0,0-1.766-2.054,4.793,4.793,0,0,0-5.144,0,5.072,5.072,0,0,0-1.766,2.035,7.124,7.124,0,0,0,0,5.873,4.93,4.93,0,0,0,1.766,2.035,4.545,4.545,0,0,0,2.572.749A4.76,4.76,0,0,0,839.8,117.278Z" transform="translate(-671.126 -90.848)" fill="#00a3e0"/>
  <path id="Path_11" data-name="Path 11" d="M940,119.881a1.274,1.274,0,0,1,.4.979,1.333,1.333,0,0,1-.4.979,1.394,1.394,0,0,1-.979.384h-9.962a1.235,1.235,0,0,1-.979-.441,1.39,1.39,0,0,1-.384-.9,3.008,3.008,0,0,1,.115-.672,1.951,1.951,0,0,1,.345-.595l8.081-10.806h-6.7a1.3,1.3,0,0,1-.979-.4,1.332,1.332,0,0,1-.4-.979,1.317,1.317,0,0,1,.384-.96,1.363,1.363,0,0,1,1-.365h9.482a1.3,1.3,0,0,1,.979.441,1.362,1.362,0,0,1,.346,1.056,2.048,2.048,0,0,1-.115.537,1.62,1.62,0,0,1-.326.518l-8.139,10.864h7.256A1.17,1.17,0,0,1,940,119.881Z" transform="translate(-750.558 -92.626)" fill="#00a3e0"/>
</svg>
