<svg xmlns="http://www.w3.org/2000/svg" xmlns:xlink="http://www.w3.org/1999/xlink" version="1.1" id="filter_1_" x="0px" y="0px" viewBox="0 0 14.3 14.5" style="enable-background:new 0 0 14.3 14.5;" xml:space="preserve">
<style type="text/css">
	.st0{fill:#17ACEF;}
</style>
<path id="Path_4885" class="st0" d="M0.4,2.3h6.2c0.2,1,1.3,1.6,2.3,1.4c0.7-0.2,1.2-0.7,1.4-1.4h3.6c0.2,0,0.5-0.2,0.5-0.4  c0-0.2-0.2-0.5-0.4-0.5c0,0,0,0,0,0h-3.6c-0.2-1-1.3-1.6-2.3-1.4C7.4,0.2,6.9,0.8,6.7,1.4H0.4C0.2,1.4,0,1.6,0,1.9  C0,2.1,0.2,2.3,0.4,2.3z M8.5,0.8c0.6,0,1,0.5,1.1,1.1c0,0.2,0,0.3-0.1,0.4C9.2,2.8,8.6,3.1,8.1,2.8C7.7,2.6,7.5,2.3,7.5,1.9  c0-0.2,0-0.3,0.1-0.4C7.7,1.1,8.1,0.8,8.5,0.8z"/>
<path id="Path_4886" class="st0" d="M13.9,6.8H7.2c-0.2-1-1.3-1.6-2.3-1.4C4.3,5.6,3.7,6.1,3.6,6.8H0.4C0.2,6.8,0,7,0,7.3  c0,0.2,0.2,0.4,0.4,0.4h3.1c0.2,1,1.3,1.6,2.3,1.4C6.5,8.9,7,8.4,7.2,7.7h6.7c0.2,0,0.4-0.2,0.4-0.4c0,0,0,0,0,0  C14.3,7,14.1,6.8,13.9,6.8z M5.4,8.3c-0.6,0-1.1-0.5-1.1-1l0,0c0-0.2,0-0.3,0.1-0.4C4.7,6.3,5.3,6,5.8,6.3c0.4,0.2,0.6,0.5,0.6,0.9  c0,0.2,0,0.3-0.1,0.4C6.2,8.1,5.8,8.3,5.4,8.3L5.4,8.3z"/>
<path id="Path_4887" class="st0" d="M13.9,12.2h-3.6c-0.2-1-1.3-1.6-2.3-1.4c-0.7,0.2-1.2,0.7-1.4,1.4H0.4c-0.2,0-0.4,0.2-0.4,0.5  C0,12.9,0.2,13,0.4,13h6.2c0.2,1,1.3,1.6,2.3,1.4c0.7-0.2,1.2-0.7,1.4-1.4h3.6c0.2,0,0.4-0.2,0.4-0.4c0,0,0,0,0,0  C14.3,12.4,14.1,12.2,13.9,12.2z M8.5,13.7c-0.6,0-1-0.5-1.1-1c0-0.2,0-0.3,0.1-0.4c0.2-0.5,0.9-0.7,1.4-0.5  c0.4,0.2,0.6,0.5,0.6,0.9c0,0.2,0,0.3-0.1,0.4C9.3,13.4,8.9,13.7,8.5,13.7L8.5,13.7z"/>
</svg>